<svg width="112" height="60" viewBox="0 0 112 60" fill="none" xmlns="http://www.w3.org/2000/svg">
<path d="M103.491 58.1563L0.614014 59.9518L8.18175 1.79774L111.059 0L103.491 58.1563Z" fill="#141414"/>
<path d="M27.4779 13.3445C25.7859 13.0633 24.0572 13.0856 22.373 13.4104C19.7581 13.9869 18.2872 15.8527 17.7856 19.514L17.6222 20.649C17.0887 24.1378 18.0897 26.4553 19.9783 29.7285L21.3947 32.2253C23.0494 35.1285 23.601 36.3724 23.1493 39.2619C23.0063 40.2992 22.8156 41.3297 22.4547 42.0152C22.0938 42.7007 21.7147 42.9845 21.0338 43.0344C20.0396 43.1093 19.3064 42.4851 19.5084 40.9257L20.4164 34.3L15.4226 34.3885L14.4466 41.4092C13.9518 44.814 15.2865 47.0475 18.0512 47.7648C19 48.01 21.456 48.1552 23.3808 47.6014C26.1046 46.8206 27.7503 44.4644 28.3087 40.2584L28.4698 39.0644C28.9896 34.7517 27.8002 32.8064 25.6666 28.539L24.2933 25.9083C22.9314 23.2752 22.5364 22.3673 22.7339 20.5332L22.8565 19.6616C22.9972 18.9511 23.3263 17.7753 24.4703 17.7549C25.2625 17.7413 25.9004 18.3723 25.6961 19.7978L25.0446 24.4351L29.9498 24.3398L30.7216 18.7854C31.1506 15.6984 30.0293 13.8167 27.4779 13.3445ZM49.2823 13.0585L33.5816 13.3332L32.9006 18.3269L38.2825 18.2338L34.1513 47.3835L39.1859 47.2972L43.3012 18.1521L48.59 18.0613L49.2823 13.0585ZM43.6553 47.2178L48.2767 47.1383L49.5161 41.9426L53.4339 41.8745L53.2659 47.0498L58.0712 46.9658L58.5252 12.8974L52.5305 13.0018L43.6553 47.2178ZM79.0925 12.5365L74.0125 12.6273L68.4263 25.7721L70.2581 12.6908L65.2236 12.7793L60.4182 46.925L65.4528 46.8387L67.532 32.1504L69.618 46.7661L74.7888 46.6753L72.1852 28.6366L79.0925 12.5365ZM76.8725 46.639L88.5442 46.4347L89.2774 41.248L82.6403 41.3638L84.0249 31.4967L89.0186 31.4104L89.7518 26.2238L84.758 26.31L86.0155 17.3622L92.3712 17.251L93.0635 12.2936L81.6665 12.4933L76.8725 46.639ZM96.811 21.4593L99.8799 21.4071L100.422 6.26709L96.811 21.4593Z" fill="white"/>
</svg>
